<?xml version="1.0" encoding="UTF-8"?>
<svg xmlns="http://www.w3.org/2000/svg" xmlns:xlink="http://www.w3.org/1999/xlink" width="65px" height="65px" viewBox="0 0 65 65" version="1.1">
<g id="surface1">
<path style=" stroke:none;fill-rule:nonzero;fill:rgb(0%,0%,0%);fill-opacity:1;" d="M 48.34375 41.601562 L 56.296875 10.453125 L 65 10.453125 L 65 5.558594 L 52.496094 5.558594 L 50.621094 12.902344 L 0 12.867188 L 5.382812 41.601562 Z M 49.371094 17.796875 L 44.542969 36.703125 L 9.445312 36.703125 L 5.898438 17.765625 Z M 49.371094 17.796875 "/>
<path style=" stroke:none;fill-rule:nonzero;fill:rgb(0%,0%,0%);fill-opacity:1;" d="M 41.644531 59.441406 C 45.960938 59.441406 49.472656 55.929688 49.472656 51.609375 C 49.472656 47.292969 45.960938 43.785156 41.644531 43.785156 L 12.148438 43.785156 C 7.828125 43.785156 4.320312 47.292969 4.320312 51.609375 C 4.320312 55.929688 7.828125 59.441406 12.148438 59.441406 C 16.464844 59.441406 19.976562 55.929688 19.976562 51.609375 C 19.976562 50.574219 19.773438 49.585938 19.40625 48.679688 L 34.382812 48.679688 C 34.015625 49.585938 33.8125 50.574219 33.8125 51.609375 C 33.8125 55.929688 37.328125 59.441406 41.644531 59.441406 Z M 15.082031 51.609375 C 15.082031 53.230469 13.765625 54.546875 12.148438 54.546875 C 10.53125 54.546875 9.210938 53.230469 9.210938 51.609375 C 9.210938 49.996094 10.527344 48.679688 12.148438 48.679688 C 13.765625 48.679688 15.082031 49.996094 15.082031 51.609375 Z M 44.574219 51.609375 C 44.574219 53.230469 43.261719 54.546875 41.644531 54.546875 C 40.023438 54.546875 38.710938 53.230469 38.710938 51.609375 C 38.710938 49.996094 40.023438 48.679688 41.644531 48.679688 C 43.261719 48.679688 44.574219 49.996094 44.574219 51.609375 Z M 44.574219 51.609375 "/>
</g>
</svg>
