<?xml version="1.0" encoding="UTF-8"?>
<svg xmlns="http://www.w3.org/2000/svg" xmlns:xlink="http://www.w3.org/1999/xlink" width="128px" height="128px" viewBox="0 0 128 128" version="1.1">
<g id="surface1">
<path style=" stroke:none;fill-rule:nonzero;fill:rgb(79.215688%,81.960785%,84.705883%);fill-opacity:1;" d="M 6 4 L 122 4 C 125.3125 4 128 6.6875 128 10 L 128 118 C 128 121.3125 125.3125 124 122 124 L 6 124 C 2.6875 124 0 121.3125 0 118 L 0 10 C 0 6.6875 2.6875 4 6 4 Z M 6 4 "/>
<path style=" stroke:none;fill-rule:nonzero;fill:rgb(100%,100%,100%);fill-opacity:1;" d="M 6 20 L 122 20 C 123.105469 20 124 20.894531 124 22 L 124 118 C 124 119.105469 123.105469 120 122 120 L 6 120 C 4.894531 120 4 119.105469 4 118 L 4 22 C 4 20.894531 4.894531 20 6 20 Z M 6 20 "/>
<path style=" stroke:none;fill-rule:nonzero;fill:rgb(60.784316%,65.490198%,68.627453%);fill-opacity:1;" d="M 24 12 C 24 10.894531 23.105469 10 22 10 C 20.894531 10 20 10.894531 20 12 C 20 13.101562 20.894531 14 22 14 C 23.105469 14 24 13.101562 24 12 Z M 24 12 "/>
<path style=" stroke:none;fill-rule:nonzero;fill:rgb(88.627452%,89.803922%,90.588236%);fill-opacity:1;" d="M 30 10 L 122 10 C 123.105469 10 124 10.894531 124 12 C 124 13.105469 123.105469 14 122 14 L 30 14 C 28.894531 14 28 13.105469 28 12 C 28 10.894531 28.894531 10 30 10 Z M 30 10 "/>
<path style=" stroke:none;fill-rule:nonzero;fill:rgb(79.215688%,81.960785%,84.705883%);fill-opacity:1;" d="M 38 94 L 90 94 C 91.105469 94 92 94.894531 92 96 C 92 97.105469 91.105469 98 90 98 L 38 98 C 36.894531 98 36 97.105469 36 96 C 36 94.894531 36.894531 94 38 94 Z M 38 94 "/>
<path style=" stroke:none;fill-rule:nonzero;fill:rgb(79.215688%,81.960785%,84.705883%);fill-opacity:1;" d="M 48 102 L 80 102 C 81.105469 102 82 102.894531 82 104 C 82 105.105469 81.105469 106 80 106 L 48 106 C 46.894531 106 46 105.105469 46 104 C 46 102.894531 46.894531 102 48 102 Z M 48 102 "/>
<path style=" stroke:none;fill-rule:nonzero;fill:rgb(60.784316%,65.490198%,68.627453%);fill-opacity:1;" d="M 8 12 C 8 10.894531 7.105469 10 6 10 C 4.894531 10 4 10.894531 4 12 C 4 13.101562 4.894531 14 6 14 C 7.105469 14 8 13.101562 8 12 Z M 8 12 "/>
<path style=" stroke:none;fill-rule:nonzero;fill:rgb(60.784316%,65.490198%,68.627453%);fill-opacity:1;" d="M 16 12 C 16 10.894531 15.105469 10 14 10 C 12.894531 10 12 10.894531 12 12 C 12 13.101562 12.894531 14 14 14 C 15.105469 14 16 13.101562 16 12 Z M 16 12 "/>
<path style=" stroke:none;fill-rule:nonzero;fill:rgb(21.176471%,53.725493%,78.823531%);fill-opacity:1;" d="M 90 58 C 90 43.640625 78.359375 32 64 32 C 49.640625 32 38 43.640625 38 58 C 38 72.359375 49.640625 84 64 84 C 78.359375 84 90 72.359375 90 58 Z M 90 58 "/>
<path style=" stroke:none;fill-rule:nonzero;fill:rgb(10.588235%,43.529412%,67.058825%);fill-opacity:1;" d="M 60 57.039062 L 57.078125 60.558594 C 55.929688 61.929688 54.011719 62.371094 52.378906 61.640625 C 52.625 62.195312 52.996094 62.6875 53.460938 63.078125 C 55.15625 64.492188 57.679688 64.265625 59.09375 62.566406 C 59.09375 62.566406 59.097656 62.5625 59.101562 62.558594 L 60 61.441406 C 60 61.441406 60 57.039062 60 57.039062 Z M 60 57.039062 "/>
<path style=" stroke:none;fill-rule:nonzero;fill:rgb(10.588235%,43.529412%,67.058825%);fill-opacity:1;" d="M 79.078125 57.441406 L 69.078125 45.441406 C 68.773438 45.09375 68.40625 44.800781 68 44.578125 L 77.058594 55.441406 C 78.441406 57.164062 78.164062 59.679688 76.4375 61.0625 C 75.171875 62.078125 73.417969 62.226562 72 61.441406 L 72.917969 62.558594 C 74.332031 64.261719 76.859375 64.492188 78.558594 63.078125 C 80.261719 61.667969 80.492188 59.140625 79.078125 57.441406 Z M 79.078125 57.441406 "/>
<path style=" stroke:none;fill-rule:nonzero;fill:rgb(10.588235%,43.529412%,67.058825%);fill-opacity:1;" d="M 68 57.039062 L 68 70 C 67.996094 72.210938 66.199219 73.996094 63.992188 73.992188 C 63.429688 73.988281 62.871094 73.871094 62.359375 73.640625 C 63.273438 75.648438 65.648438 76.535156 67.65625 75.621094 C 69.078125 74.972656 69.992188 73.558594 70 72 L 70 59.441406 Z M 68 57.039062 "/>
<path style=" stroke:none;fill-rule:nonzero;fill:rgb(100%,100%,100%);fill-opacity:1;" d="M 51.441406 61.078125 C 53.136719 62.492188 55.660156 62.265625 57.074219 60.566406 C 57.074219 60.566406 57.078125 60.5625 57.078125 60.558594 L 60 57.039062 L 60 70 C 60 72.210938 61.789062 74 64 74 C 66.210938 74 68 72.210938 68 70 L 68 57.039062 L 70.917969 60.558594 C 72.273438 62.308594 74.785156 62.628906 76.53125 61.277344 C 78.277344 59.925781 78.597656 57.414062 77.25 55.664062 C 77.1875 55.585938 77.125 55.511719 77.058594 55.441406 L 67.058594 43.441406 C 65.644531 41.746094 63.121094 41.519531 61.425781 42.933594 C 61.242188 43.085938 61.074219 43.257812 60.921875 43.441406 L 50.921875 55.441406 C 49.507812 57.136719 49.734375 59.660156 51.433594 61.074219 C 51.433594 61.074219 51.4375 61.078125 51.441406 61.078125 Z M 51.441406 61.078125 "/>
<path style=" stroke:none;fill-rule:nonzero;fill:rgb(86.666667%,87.450981%,88.235295%);fill-opacity:1;" d="M 57.71875 59.359375 C 56.308594 58.988281 54.8125 59.109375 53.480469 59.699219 C 52.484375 60.121094 51.355469 60.121094 50.359375 59.699219 C 50.726562 60.578125 51.402344 61.289062 52.261719 61.699219 C 54.019531 62.457031 56.070312 61.941406 57.261719 60.441406 L 58 59.441406 Z M 57.71875 59.359375 "/>
<path style=" stroke:none;fill-rule:nonzero;fill:rgb(10.588235%,43.529412%,67.058825%);fill-opacity:1;" d="M 86 54 C 83.789062 54 82 55.789062 82 58 C 82 67.941406 73.941406 76 64 76 C 61.789062 76 60 77.792969 60 80 C 60 82.210938 61.789062 84 64 84 C 78.359375 84 90 72.359375 90 58 C 90 55.789062 88.207031 54 86 54 Z M 86 54 "/>
<path style=" stroke:none;fill-rule:nonzero;fill:rgb(29.803923%,62.352943%,84.313726%);fill-opacity:1;" d="M 42 62 C 44.210938 62 46 60.210938 46 58 C 46 48.058594 54.058594 40 64 40 C 66.210938 40 68 38.210938 68 36 C 68 33.789062 66.210938 32 64 32 C 49.640625 32 38 43.640625 38 58 C 38 60.207031 39.789062 62 42 62 Z M 42 62 "/>
<path style=" stroke:none;fill-rule:nonzero;fill:rgb(86.666667%,87.450981%,88.235295%);fill-opacity:1;" d="M 68 57.039062 C 66.894531 57.039062 66 57.933594 66 59.039062 L 66 72 C 65.996094 72.566406 65.875 73.125 65.640625 73.640625 C 67.074219 72.996094 67.996094 71.570312 68 70 Z M 68 57.039062 "/>
</g>
</svg>
